HIERARCHY
ROOT pelvis
{
  OFFSET 0 100 0
  CHANNELS 6 Xposition Yposition Zposition Zrotation Xrotation Yrotation
  JOINT pelvis_right_femur
  {
    OFFSET -10.78128 -3.44521 -0.5502486
    CHANNELS 3 Zrotation Xrotation Yrotation
    JOINT right_femur_tibia
    {
      OFFSET -0.8047443 -44.0398 -0.1307829
      CHANNELS 3 Zrotation Xrotation Yrotation
      JOINT right_tibia_foot
      {
        OFFSET 3.006224 -47.83518 -5
        CHANNELS 3 Zrotation Xrotation Yrotation
        End Site
        {
          OFFSET 0 -5 15
        }
      }
    }
  }
  JOINT pelvis_left_femur
  {
    OFFSET 10.78128 -3.44521 -0.5502486
    CHANNELS 3 Zrotation Xrotation Yrotation
    JOINT left_femur_tibia
    {
      OFFSET 0.8047443 -44.0398 -0.1307829
      CHANNELS 3 Zrotation Xrotation Yrotation
      JOINT left_tibia_foot
      {
        OFFSET -4.370144 -48.10324 -4.275266
        CHANNELS 3 Zrotation Xrotation Yrotation
        End Site
        {
          OFFSET 0 -5 15
        }
      }
    }
  }
  JOINT pelvis_spine1
  {
    OFFSET 0 6.468898 -3.129235
    CHANNELS 3 Zrotation Xrotation Yrotation
    JOINT spine1
    {
      OFFSET 0 23.15396 4.99043
      CHANNELS 3 Zrotation Xrotation Yrotation
      JOINT spine2
      {
        OFFSET 0 20.79997 -5.064912
        CHANNELS 3 Zrotation Xrotation Yrotation
        JOINT neck
        {
          OFFSET 0 14.38658 9.616178
          CHANNELS 3 Zrotation Xrotation Yrotation
          End Site
          {
            OFFSET 0 20 0
          }
        }
      }
      JOINT right_manubrium
      {
        OFFSET -5.722621 16.35077 3.967754
        CHANNELS 3 Zrotation Xrotation Yrotation
        JOINT right_clavicle
        {
          OFFSET -13.16364 1.694482 -4.693211
          CHANNELS 3 Zrotation Xrotation Yrotation
          JOINT right_humerus
          {
            OFFSET -28.5034 -0.3100689 -2.792744
            CHANNELS 3 Zrotation Xrotation Yrotation
            JOINT right_radius
            {
              OFFSET -25.15693 0.02248979 -1.271978
              CHANNELS 3 Zrotation Xrotation Yrotation
              End Site
              {
                OFFSET -15 0 0
              }
            }
          }
        }
      }
      JOINT left_manubrium
      {
        OFFSET 5.722621 16.35077 3.967754
        CHANNELS 3 Zrotation Xrotation Yrotation
        JOINT left_clavicle
        {
          OFFSET 13.16364 1.694482 -4.693211
          CHANNELS 3 Zrotation Xrotation Yrotation
          JOINT left_humerus
          {
            OFFSET 29.39168 -1.063119 -2.237045
            CHANNELS 3 Zrotation Xrotation Yrotation
            JOINT left_radius
            {
              OFFSET 24.59957 -0.9528479 0.9047498
              CHANNELS 3 Zrotation Xrotation Yrotation
              End Site
              {
                OFFSET 15 -0 -0
              }
            }
          }
        }
      }
    }
  }
}
MOTION
Frames: 19
Frame Time: 0.0416666666667
0 103.5113 0 2.532504 -0.05545571 0.1597394 1.744384 -14.25937 10.93045 -0 38.72432 -0 -5.096461 -17.6101 -1.604209 -9.058729 8.341255 -23.8519 -0 4.686345 -0 22.78784 -6.706369 30.47933 -4.408645 -4.493889 5.961102 2.166861 10.5141 -6.500765 1.960282 22.38347 6.257554 2.875912 -24.91921 9.670646 6.080066 -21.81832 11.53373 87.12951 39.7676 -17.17804 -0 0 16.04768 -5.138431 7.271049 6.103326 2.53175 -15.64026 -4.788393 -90.63066 23.0984 19.49689 0 0 -16.04007 15.80648 11.36077 -1.619544
0.376194 103.5664 1.492396 1.866496 0.4017213 0.2348859 3.304365 -18.12643 10.86846 -0 40.03151 -0 -5.198512 -16.28959 -2.543934 -8.520123 9.007558 -23.60927 -0 4.821585 -0 22.18307 -8.06382 30.32969 -4.084278 -3.567367 5.457379 2.331286 10.37572 -6.851565 1.983283 21.97679 6.496177 2.938716 -25.46197 10.01437 5.940838 -21.53186 11.70626 87.15079 39.67135 -17.31974 -0 0 15.58962 -5.26483 7.363734 6.1336 3.000539 -16.61505 -4.183554 -90.33795 22.75074 19.67169 0 0 -17.57525 15.76719 10.80282 -1.865011
0.6583943 103.4378 3.284739 1.30606 0.8178692 0.2435329 4.758143 -22.11298 10.56158 -0 39.02283 -0 -5.117012 -14.76589 -2.889939 -8.078554 9.711861 -23.14733 -0 4.9167 -0 21.42155 -9.56148 30.04669 -3.85145 -2.738939 5.150382 2.630033 10.25437 -7.039867 1.96357 21.55253 6.763107 3.003317 -26.02671 10.33963 5.838814 -21.1376 11.89813 87.17678 39.56486 -17.70413 -0 0 14.81996 -5.383245 7.462426 6.058139 3.575497 -17.49966 -3.657484 -89.89827 22.34322 19.35049 0 0 -19.7477 15.9247 10.24125 -2.320308
0.9328066 103.1855 5.318565 0.8046779 1.325836 0.2195339 5.952078 -25.98369 10.13739 -0 35.84937 -0 -4.906333 -13.02518 -2.746998 -7.71601 10.4247 -22.59221 -0 5.09147 -0 20.53948 -11.23076 29.65539 -3.746521 -1.937472 4.988536 3.006618 10.18362 -7.092449 1.966454 21.14616 6.971624 3.08237 -26.52317 10.5853 5.676236 -20.57738 12.10114 87.22683 39.45141 -18.33658 -0 0 13.78281 -5.502997 7.578372 5.903866 4.34314 -18.41717 -3.158589 -89.23472 21.90107 18.54821 0 0 -22.45889 16.22263 9.674471 -2.911223
1.254952 102.7088 7.940009 0.4885783 1.972391 0.2059147 6.804679 -29.42821 9.502359 -0 30.92116 -0 -4.556008 -10.9423 -2.267468 -7.63664 11.29541 -21.95026 -0 5.470211 -0 19.47405 -13.00911 29.04692 -3.755236 -1.37883 5.100125 3.343648 10.09869 -6.867589 2.000016 20.70642 7.140643 3.181656 -26.95185 10.78308 5.456498 -19.91026 12.43272 87.26644 39.30466 -19.03634 -0 0 12.75135 -5.659259 7.699623 5.766791 5.225488 -19.34416 -2.703915 -88.49436 21.45218 17.39991 0 0 -25.4898 16.51871 9.134143 -3.535418
1.762928 102.073 10.89668 0.3757105 2.440721 0.02502588 7.219858 -32.36817 8.719741 -0 25.09968 -0 -4.23147 -8.858272 -1.643331 -7.706595 12.36889 -21.26001 -0 6.103777 -0 18.14992 -14.84325 28.06996 -3.821008 -1.086402 4.818367 3.581955 10.21572 -7.060634 1.85898 20.58886 7.446259 3.224441 -27.07809 10.99686 5.2238 -19.51218 12.28713 87.45088 39.2051 -19.81038 -0 0 11.63807 -5.735966 7.86692 5.62362 5.978738 -19.96146 -2.218196 -87.75741 21.03315 16.42475 0 0 -28.08942 16.63622 8.629656 -3.935239
2.169958 101.2588 14.30572 0.2191739 3.034072 0.2239796 7.598546 -34.71364 7.834871 -0 19.35339 -0 -4.007468 -7.173184 -0.9710108 -7.792527 13.53484 -20.38832 -0 7.077126 -0 16.56456 -16.59962 26.85416 -3.76532 -0.9132262 4.518275 3.772496 10.21123 -7.264187 1.571765 20.72879 7.806647 3.215024 -26.99347 11.13025 4.940139 -18.95769 12.10705 87.96385 39.08932 -20.79062 -0 0 10.47872 -5.766906 8.078437 5.48801 6.715722 -20.87402 -1.922052 -86.85974 20.77546 15.13797 0 0 -30.43522 16.60717 8.252728 -4.149423
2.52788 100.4077 18.12461 -0.2049699 3.565944 0.8473862 8.021572 -36.16207 7.241597 -0 15.44302 -0 -4.083566 -5.699713 -0.2633595 -7.571962 14.59814 -19.3812 -0 8.669714 -0 14.56835 -18.00181 25.32833 -3.511085 -0.7191676 3.982219 3.991501 10.19775 -7.712676 1.273317 20.75765 8.120399 3.145977 -26.87074 11.20867 4.730243 -18.31284 11.92586 88.64919 38.968 -21.90592 -0 0 9.276797 -5.78928 8.335345 5.37079 7.18586 -21.6526 -1.928008 -86.05249 20.69496 14.08926 0 0 -31.921 16.35756 8.000482 -4.053665
2.918317 99.70709 22.59532 -0.6124954 4.093652 1.868663 8.208445 -36.49308 6.349338 -0 13.73951 -0 -4.429003 -4.86365 -0.2514355 -7.118641 15.75294 -17.9468 -0 10.86985 -0 11.94619 -18.63651 23.35831 -2.966423 -0.8309634 3.394761 4.069794 10.01064 -8.234145 0.9538646 20.89863 8.376528 3.042538 -26.62861 11.19586 4.618012 -17.78987 11.74223 89.28584 38.84094 -22.82537 -0 0 8.325081 -5.911505 8.61819 5.381614 7.194985 -22.38338 -1.996658 -85.46216 20.73675 13.37468 0 0 -32.39715 15.93867 7.825837 -3.645626
3.248855 99.29755 27.57433 -1.611836 4.886314 3.199308 8.475776 -35.2911 5.633494 -0 14.77718 -0 -5.130105 -4.090245 -0.6786227 -6.318372 16.40713 -16.23887 -0 14.38251 -0 8.687565 -18.03901 21.30043 -1.913531 -1.21657 2.642351 4.142707 9.756729 -8.877065 0.6923171 20.82966 8.564248 2.921671 -26.35331 11.1473 4.550731 -17.22425 11.66351 90.06581 38.71996 -23.65555 -0 0 7.48062 -6.071165 8.947571 5.461116 6.775745 -22.77921 -2.383897 -85.21279 20.91004 13.27266 0 0 -31.54927 15.24766 7.650352 -2.843085
3.696632 99.41793 33.24714 -2.51816 5.064878 4.021681 9.020239 -33.26443 5.315 -0 16.33124 -0 -5.886319 -3.930082 -1.054085 -5.510917 16.29314 -14.81617 -0 20.13278 -0 5.214593 -15.56592 18.80727 -0.6148964 -1.465559 2.174386 4.054676 9.722425 -9.247222 0.3227478 20.73108 8.739138 2.704092 -25.93993 10.99328 4.485541 -16.65369 11.68641 90.8482 38.5984 -24.34213 -0 0 6.806098 -6.348075 9.314722 5.653176 6.049156 -22.76644 -2.808694 -85.443 21.15429 13.89509 0 0 -29.71079 14.34572 7.444674 -1.763316
4.095603 99.96734 39.32222 -3.243256 4.574604 3.924235 9.76055 -29.9189 5.267323 -0 17.5906 -0 -6.48127 -4.718035 -1.165142 -5.35307 14.93358 -13.54882 -0 28.49558 -0 2.013478 -11.44947 16.42199 0.5819888 -1.602294 2.176628 3.811823 9.944934 -9.090845 -0.1037648 20.77937 8.859826 2.447685 -25.42452 10.71722 4.537088 -16.28727 11.91026 91.45382 38.49891 -24.53528 -0 0 6.479905 -6.78378 9.691381 5.96409 5.233802 -22.41637 -3.146406 -86.02716 21.47777 15.09209 0 0 -27.34545 13.32812 7.287891 -0.5680333
4.438265 100.9636 45.37775 -3.35571 3.570517 3.221584 9.88815 -25.21785 4.88027 -0 17.85144 -0 -6.890036 -6.512072 -0.9131859 -5.44602 11.94937 -12.24302 -0 38.42672 -0 -0.1496092 -7.344964 14.63746 1.121871 -1.316598 2.811262 3.460705 10.28022 -8.525208 -0.493659 21.03116 8.857903 2.218482 -24.90866 10.3071 4.837598 -16.27968 12.37984 91.55698 38.4953 -24.08275 -0 0 6.463059 -7.447486 10.06353 6.359269 4.370065 -22.11101 -3.469452 -86.73518 21.82698 16.50754 0 0 -24.88062 12.23952 7.122566 0.6025287
5.201219 102.1025 51.84352 -2.340555 1.472636 2.184406 8.521813 -18.62956 3.889818 -0 17.32225 -0 -7.005718 -8.643519 -0.4460009 -4.352319 6.069181 -10.18295 -0 48.15443 -0 -0.8748803 -5.653927 14.70391 0.8531837 -0.8906951 3.908862 2.882322 11.02215 -7.768725 -0.7032086 21.55105 8.678479 2.086673 -24.34735 9.837195 5.075084 -16.45324 12.71379 91.0992 38.51111 -23.22552 -0 0 6.823889 -8.477375 10.37864 6.943357 3.364366 -21.52696 -3.611791 -87.82255 22.08746 18.32587 0 0 -22.71209 11.11861 6.955185 1.616421
5.645147 103.2131 57.56213 -1.620381 0.09818398 2.089106 7.289107 -12.47001 2.996991 -0 15.41494 -0 -6.723703 -10.49836 0.1822344 -4.274125 0.389712 -8.191062 -0 54.56924 -0 -1.467082 -4.274365 14.47711 0.471993 -0.614143 5.098681 2.476001 11.33882 -7.043031 -0.7017341 22.00961 8.268043 2.049955 -23.73963 9.223267 5.186477 -16.84199 12.90549 90.2856 38.4757 -21.8213 -0 0 7.744548 -9.909347 10.5906 7.766338 2.872898 -21.12071 -3.505665 -88.83319 22.24398 19.96152 0 0 -21.28956 10.08898 6.818629 2.40152
6.06928 104.3227 62.97981 -0.6388878 -0.9995664 2.048065 5.935043 -6.455467 2.179423 -0 12.85209 -0 -6.109759 -11.9145 0.8293745 -3.769916 -6.360289 -7.340356 -0 55.45316 -0 -0.9537715 -5.051005 14.90407 -0.3003561 -0.2945197 6.275602 1.949585 11.3843 -6.243706 -0.6245416 22.44684 7.79733 2.055121 -23.12814 8.590585 4.96893 -17.62363 13.05939 88.89126 38.40142 -19.68973 -0 0 9.317119 -11.81463 10.67402 8.850467 2.873349 -20.64556 -3.310554 -89.85231 22.34922 21.6027 0 0 -20.3019 9.084704 6.713391 3.067428
6.670055 105.2906 68.55249 0.5454188 -1.949915 1.8923 4.359011 -0.5656794 1.554755 -0 10.28347 -0 -5.272282 -13.03088 1.446928 -3.043364 -13.26336 -6.598585 -0 54.01691 -0 -0.8009723 -5.368719 15.40652 -1.211667 -0.1173613 7.275779 1.312394 11.41809 -5.512275 -0.5662073 22.8471 7.327542 2.064047 -22.59323 7.933142 4.553301 -18.55172 13.08337 87.20924 38.21403 -17.27864 -0 0 11.2114 -13.96293 10.6319 10.07148 3.043741 -19.99967 -3.028217 -90.91477 22.40187 23.38097 0 0 -19.36128 8.065739 6.635875 3.737312
7.135806 105.6425 73.92052 1.364549 -2.346958 1.783457 3.263928 4.385215 1.181565 -0 8.108502 -0 -4.335412 -14.12177 1.951218 -1.536571 -19.05175 -5.662634 -0 48.95362 -0 -1.220674 -5.353963 16.42364 -1.95689 -0.07787187 8.048457 0.8042199 11.18587 -4.842415 -0.5978079 23.0086 6.995749 2.026374 -22.17408 7.380543 4.105149 -19.4106 13.06435 85.52301 37.85258 -14.77006 -0 0 13.43816 -16.29878 10.47697 11.38719 3.404754 -19.57813 -2.819921 -91.76719 22.45992 24.80933 0 0 -18.58551 7.086601 6.606949 4.422317
7.813248 105.0956 79.47068 1.377977 -2.383832 1.797077 3.001995 8.588233 0.8196114 -0 6.680438 -0 -3.387037 -15.4206 2.279654 0.5318438 -23.49274 -3.649849 -0 40.38179 -0 -1.996345 -4.524434 18.38209 -1.993519 -0.325743 8.488377 0.374532 10.81821 -4.259434 -0.540162 22.92987 6.728085 2.038192 -21.81601 6.987113 3.348553 -20.42654 12.99788 83.48937 37.3152 -12.00543 -0 0 15.93531 -18.80518 10.17222 12.74181 3.753939 -18.8819 -2.63465 -92.68998 22.50133 26.31811 0 0 -17.59933 6.072182 6.558185 5.225385
